/* XPM */
static const char * argument_xpm[] = {
"16 16 12 1",
" 	c None",
".	c #206820",
"+	c #58A058",
"@	c #509050",
"#	c #407040",
"$	c #508850",
"%	c #98C098",
"&	c #90B090",
"*	c #C8D8C8",
"=	c #F8F8F0",
"-	c #E8E8E0",
";	c #FFFFFF",
"                ",
"                ",
"     &....&     ",
"   *.$****$.*   ",
"   .&;;;;;;&.   ",
"  &$;;%##%;;$&  ",
"  .*;;#=%#;;*.  ",
"  .*;;*#@#*;*.  ",
"  .*;-#;%#*;*.  ",
"  .*;%#%%#*;*.  ",
"  &$;-+##*#;$&  ",
"   .&;;;;;;&.   ",
"   *.$****$.*   ",
"     &....&     ",
"                ",
"                "};
