/* XPM */
static char * arrow_1_disable_xpm[] = {
"16 16 10 1",
" 	c None",
".	c #938E12",
"+	c #959011",
"@	c #928E12",
"#	c #949011",
"$	c #938F11",
"%	c #948F11",
"&	c #938E11",
"*	c #928E11",
"=	c #938F12",
"                ",
"        .       ",
"        ..      ",
"        ++@     ",
"        #$#.    ",
"        #$#..   ",
" %%%%%%%%& %.%  ",
" %********  %%% ",
" =@          ===",
" =========  ==. ",
" ......... ...  ",
"        .....   ",
"        @@.@    ",
"        @.@     ",
"        .@      ",
"        @       "};
