/* XPM */
static char * arrow_1_yellow_xpm[] = {
"16 16 45 1",
" 	c None",
".	c #948F11",
"+	c #959011",
"@	c #949011",
"#	c #E8DF29",
"$	c #E1D829",
"%	c #E3D927",
"&	c #E1D529",
"*	c #DDDA21",
"=	c #DCD821",
"-	c #DCD621",
";	c #DBD521",
">	c #DAD323",
",	c #DAD227",
"'	c #D9CF27",
")	c #D8CF27",
"!	c #D7CD27",
"~	c #D6CB29",
"{	c #D6C92B",
"]	c #938F12",
"^	c #BEBA1D",
"/	c #BDB91D",
"(	c #BDB71D",
"_	c #BDB621",
":	c #BDB321",
"<	c #BBB321",
"[	c #BAB121",
"}	c #BAB023",
"|	c #B9AE25",
"1	c #B9AD25",
"2	c #B7AC27",
"3	c #B7AA27",
"4	c #A8A418",
"5	c #A7A21A",
"6	c #A7A01D",
"7	c #A79F1D",
"8	c #A59F1D",
"9	c #A59D1D",
"0	c #A49B1F",
"a	c #A49A21",
"b	c #A49921",
"c	c #A29821",
"d	c #A29621",
"e	c #938E12",
"f	c #928E12",
"                ",
"                ",
"        .       ",
"        +.      ",
"        @#.     ",
"        @#$@    ",
" ........%$&.   ",
" .*=-;>,')!~{.  ",
" ]^/(_:<[}|123] ",
" ]4567890abcd]  ",
" eeeeeeeeddde   ",
"        edde    ",
"        fde     ",
"        .e      ",
"        e       ",
"                "};
