/* XPM */
static const char * breakpoint_xpm[] = {
"16 16 72 1",
" 	c None",
".	c #772B1A",
"+	c #903B2D",
"@	c #F17A78",
"#	c #C65C55",
"$	c #F17876",
"%	c #FF7E7E",
"&	c #FF7B7B",
"*	c #C65750",
"=	c #8F3A2C",
"-	c #EF7573",
";	c #FD7B7B",
">	c #FD7878",
",	c #FD7575",
"'	c #FD7272",
")	c #C5524B",
"!	c #8E392C",
"~	c #E7716F",
"{	c #F47676",
"]	c #F47373",
"^	c #F47070",
"/	c #F46D6D",
"(	c #F46A6A",
"_	c #F46767",
":	c #C04C45",
"<	c #8B382A",
"[	c #DB6B69",
"}	c #E77070",
"|	c #E76D6D",
"1	c #E76A6A",
"2	c #E76868",
"3	c #E76565",
"4	c #E76161",
"5	c #E75F5F",
"6	c #E75D5D",
"7	c #B8453E",
"8	c #8D392B",
"9	c #DB6867",
"0	c #E56C6C",
"a	c #E56A6A",
"b	c #E56767",
"c	c #E56363",
"d	c #E56161",
"e	c #E55E5E",
"f	c #E55C5C",
"g	c #E55959",
"h	c #B8443D",
"i	c #8A3729",
"j	c #CD5D5B",
"k	c #D66060",
"l	c #D65E5E",
"m	c #D65A5A",
"n	c #D65858",
"o	c #D65656",
"p	c #D65353",
"q	c #AF413A",
"r	c #863326",
"s	c #BB514F",
"t	c #C25252",
"u	c #C25050",
"v	c #C24E4E",
"w	c #C24C4C",
"x	c #A33C36",
"y	c #813023",
"z	c #A54241",
"A	c #AA4444",
"B	c #AA4242",
"C	c #953730",
"D	c #7B2D1F",
"E	c #893432",
"F	c #822F28",
"G	c #772B1D",
"       .        ",
"      ...       ",
"     ..+..      ",
"    ..+@#..     ",
"   ..+$%&*..    ",
"  ..=-;>,')..   ",
" ..!~{]^/(_:..  ",
"..<[}|1234567.. ",
"..890abcdefgh.. ",
" ..ijklmnopq..  ",
"  ..rstuvwx..   ",
"   ..yzABC..    ",
"    ..DEF..     ",
"     ..G..      ",
"      ...       ",
"       .        "};
