/* XPM */
static const char * breakpoint_disabled_xpm[] = {
"16 16 22 1",
" 	c None",
".	c #772B1A",
"+	c #903B2D",
"@	c #C65C55",
"#	c #C65750",
"$	c #8F3A2C",
"%	c #C5524B",
"&	c #8E392C",
"*	c #C04C45",
"=	c #8B382A",
"-	c #B8453E",
";	c #8D392B",
">	c #B8443D",
",	c #8A3729",
"'	c #B34B38",
")	c #863326",
"!	c #A33C36",
"~	c #813023",
"{	c #A7592E",
"]	c #7B2D1F",
"^	c #822F28",
"/	c #772B1D",
"       .        ",
"      ...       ",
"     ..+..      ",
"    ..+ @..     ",
"   ..+   #..    ",
"  ..$     %..   ",
" ..&       *..  ",
"..=         -.. ",
"..;         >.. ",
" ..,       '..  ",
"  ..)     !..   ",
"   ..~   {..    ",
"    ..] ^..     ",
"     ../..      ",
"      ...       ",
"       .        "};
