/* XPM */
static const char * frame_xpm[] = {
"16 16 40 1",
" 	c None",
".	c #FBFBF9",
"+	c #F9F9F6",
"@	c #F6F5F2",
"#	c #F9F9F6",
"$	c #F2F1EC",
"%	c #F6F5F2",
"&	c #F6F5F2",
"*	c #F6F5F2",
"=	c #F6F5F2",
"-	c #EAE8E0",
";	c #EEECE6",
">	c #F2F1EC",
",	c #F2F1EC",
"'	c #F6F5F2",
")	c #E4E1D7",
"!	c #E7E4DC",
"~	c #E7E4DC",
"{	c #EAE8E0",
"]	c #EAE8E1",
"^	c #EFEDE7",
"/	c #E2DED4",
"(	c #E4E1D7",
"_	c #E7E4DC",
":	c #B4ADA1",
"<	c #AFA89D",
"[	c #B2AB9F",
"}	c #B2AB9F",
"|	c #B1AA9F",
"1	c #B1AB9F",
"2	c #B4ADA1",
"3	c #B3ACA0",
"4	c #B4ADA1",
"5	c #ADA69C",
"6	c #ADA69C",
"7	c #ADA69C",
"8	c #AFA89D",
"9	c #AEA79C",
"0	c #ACA59B",
"a	c #ABA49A",
"                ",
"                ",
"        ::      ",
"        2.2     ",
"        4..4    ",
"  3333333#+#3   ",
" }''%=*&@%@=@[  ",
" |,,>$,,>,>>,,1 ",
" <^^^;;;^;^;;^8 ",
" 9]]]{{{{]-{]9  ",
"  6666565!~_6   ",
"        7()7    ",
"        0/0     ",
"        aa      ",
"                ",
"                "};
