/* XPM */
static const char * local_xpm[] = {
"16 16 5 1",
" 	c None",
".	c #334C6F",
"+	c #8B98AA",
"@	c #9DA6B2",
"#	c #657C99",
"                ",
"                ",
"                ",
" +.     .+      ",
"+.+     +.+     ",
"#. .+ +. .#     ",
".# +.@.+ #. ....",
".#  +.+  #.     ",
".# +.@.+ #. ....",
"#. .+ +. .#     ",
"+.+     +.+     ",
" +.     .+      ",
"                ",
"                ",
"                ",
"                "};
