/* XPM */
static const char * watch_xpm[] = {
"16 16 11 1",
" 	c None",
".	c #A9B2C6",
"+	c #8B96AB",
"@	c #17325D",
"#	c #556C87",
"$	c #AEB9C6",
"%	c #324E6E",
"&	c #E4E8EC",
"*	c #D5F3FF",
"=	c #EBFAFF",
"-	c #FCFFFF",
"                ",
"    ##.         ",
"   %. #     .%#+",
"  %.  %    .%  #",
" #.       .%   %",
".%%%.%%.%%%+    ",
"%*==%..%*==%    ",
"%=--%  %=--%    ",
"%&-.%  %&-.%    ",
".%%%+  .%%%.    ",
"                ",
"     @ @  @@@   ",
"     $@$  $$$   ",
"     @ @  @@@   ",
"                ",
"                "};
