<?xml version="1.0" encoding="UTF-8" standalone="no"?>
<!-- Created with Inkscape (http://www.inkscape.org/) -->
<svg id="svg7384" xmlns:rdf="http://www.w3.org/1999/02/22-rdf-syntax-ns#" xmlns="http://www.w3.org/2000/svg" height="16" width="16" version="1.1" xmlns:cc="http://creativecommons.org/ns#" xmlns:dc="http://purl.org/dc/elements/1.1/">
 <metadata id="metadata90">
  <rdf:RDF>
   <cc:Work rdf:about="">
    <dc:format>image/svg+xml</dc:format>
    <dc:type rdf:resource="http://purl.org/dc/dcmitype/StillImage"/>
    <dc:title>Gnome Symbolic Icon Theme</dc:title>
   </cc:Work>
  </rdf:RDF>
 </metadata>
 <title id="title9167">Gnome Symbolic Icon Theme</title>
 <g id="layer12" transform="translate(-261 -647)">
  <path id="path11922-4" style="color:#000000;fill:#bebebe" d="m269 647.69c-1.0005-0.004-1.5631 3.5402-2.375 4.125-0.81155 0.58452-4.3435-0.0125-4.6562 0.9375-0.31286 0.95036 2.8822 2.5784 3.1875 3.5312 0.30513 0.95245-1.3381 4.1278-0.53125 4.7188 0.80717 0.59122 3.3432-1.9416 4.3438-1.9375 1.0001 0.004 3.5011 2.5847 4.3125 2 0.81172-0.58496-0.81311-3.7997-0.5-4.75 0.31298-0.9499 3.5241-2.5476 3.2188-3.5-0.3055-0.95275-3.8492-0.37732-4.6562-0.96875-0.8067-0.5912-1.3436-4.1524-2.3438-4.1562zm-1 4.3125h2v2h2v2h-2v2h-2v-2h-2v-2h2z"/>
 </g>
</svg>
