<?xml version="1.0" encoding="UTF-8" standalone="no"?>
<!-- Created with Inkscape (http://www.inkscape.org/) -->
<svg id="svg7384" xmlns:rdf="http://www.w3.org/1999/02/22-rdf-syntax-ns#" xmlns="http://www.w3.org/2000/svg" height="16" width="16" version="1.1" xmlns:cc="http://creativecommons.org/ns#" xmlns:dc="http://purl.org/dc/elements/1.1/">
 <metadata id="metadata90">
  <rdf:RDF>
   <cc:Work rdf:about="">
    <dc:format>image/svg+xml</dc:format>
    <dc:type rdf:resource="http://purl.org/dc/dcmitype/StillImage"/>
    <dc:title>Gnome Symbolic Icon Theme</dc:title>
   </cc:Work>
  </rdf:RDF>
 </metadata>
 <title id="title9167">Gnome Symbolic Icon Theme</title>
 <g id="layer14" transform="translate(-482,-300)">
  <path id="rect7268" style="color:#bebebe;fill:#bebebe" d="m485 308h10v7.059c0 0.4922-0.47266 0.9375-0.99609 0.9375h-8.0039c-0.53906 0-1-0.42964-1-1z"/>
  <path id="path7270" style="block-progression:tb;text-indent:0;color:#000000;text-transform:none;fill:#bebebe" d="m488.69 302.97a1.0001 1.0001 0 0 0 -0.65625 0.375l-2.8125 3.4688a1.0001 1.0001 0 0 0 -0.22 0.63v1a1.0001 1.0001 0 1 0 2 0v-0.65625l2.5938-3.1562a1.0001 1.0001 0 0 0 -0.90625 -1.6562z"/>
  <path id="path7272" style="block-progression:tb;text-indent:0;color:#000000;text-transform:none;fill:#bebebe" d="m490.91 305.97a1.0001 1.0001 0 1 0 -0.0312 2l2.1562 0.375v0.15625a1.0001 1.0001 0 1 0 2 0v-1a1.0001 1.0001 0 0 0 -0.8125 -1l-3-0.5a1.0001 1.0001 0 0 0 -0.3125 -0.0312z"/>
 </g>
</svg>
